# xmcd
#
# Track frame offsets:
#	150
#	17859
#	31774
#	50704
#
# Disc length: 928 seconds
# Revision: 0
# Processed by: cddbd v1.5.2PL0 Copyright (c) Steve Scherf et al.
# Submitted via: dBpowerAMP V12.0
#
DISCID=2b039e04
DTITLE=Mighty Oaks - Driftwood Seat
DYEAR=2011
DGENRE=Folk
TTITLE0=Driftwood Seat
TTITLE1=Rainier
TTITLE2=Like An Eagle
TTITLE3=So Low So High
EXTD=
EXTT0=
EXTT1=
EXTT2=
EXTT3=
PLAYORDER=
